<svg xmlns="http://www.w3.org/2000/svg" xmlns:xlink="http://www.w3.org/1999/xlink" version="1.1" x="0px" y="0px" viewBox="0 0 256 256" enable-background="new 0 0 256 256" xml:space="preserve">
<metadata fill="#01a99e"> Svg Vector Icons : http://www.onlinewebfonts.com/icon </metadata>
<g><g><g><path fill="#01a99e" d="M45.5,11.9C33.3,16,24.7,25.7,22.6,37.6c-0.5,2.7-0.7,31.5-0.7,90.2v86.3h57.8h57.8v-14.4v-14.5l21.6-0.2c24.1-0.3,25.2-0.5,35-5.3c4.5-2.2,6.7-3.9,11.6-8.7c5.2-5.1,6.4-6.8,9-12.2c4.8-10,5.1-12.2,5.1-44V87.3l1.8-0.3c7.6-1.6,11-3.3,16-8.1c2.5-2.4,4.6-5.2,6-8l2.1-4.3l0.2-16l0.2-15.9h-5.9h-6v-9.9v-9.9l-2.2-2.2c-2-2-2.6-2.2-5.8-2.2c-7,0-8.4,2.6-8.4,15.4v8.9h-7.9h-7.9v-8.9c0-12.8-1.4-15.4-8.4-15.4c-3.2,0-3.8,0.3-5.8,2.2l-2.2,2.2v9.9v9.9h-6h-5.9l0.2,15.6c0.3,18.7,0.7,20.6,7.2,27.5c4.7,4.9,10,7.8,16.5,8.9l4.4,0.7v27c0,29.4-0.2,31.5-3.7,38.1c-3.6,6.6-12.3,12.8-20,14.3c-1.9,0.4-11.8,0.7-22,0.7h-18.7v-63.6c0-70.1,0.1-68-4.1-76c-2.7-5.1-8.9-11.4-13.7-13.7c-7.3-3.6-8.3-3.7-40.4-3.7C50.5,10.4,49.6,10.4,45.5,11.9z M99.1,31.3c10.8,4.9,10.9,22.1,0.1,27.9c-2.6,1.3-3.6,1.4-17.9,1.4c-14.3,0-15.2-0.1-17.9-1.4c-10.9-5.8-10.6-23.3,0.5-28.1c1.8-0.8,5.4-1,17.4-1C94.6,30.1,96.7,30.3,99.1,31.3z M105.5,92c-0.3,0.5-6,8.7-12.8,18.4L80.4,128l15,0.1l14.9,0.2l-24.6,27c-13.6,14.9-24.8,27-24.9,26.9c-0.1-0.1,3.9-10.1,9.1-22.3c5.1-12.2,9.2-22.4,9.2-22.7c0-0.3-4.7-0.7-10.6-1c-9.4-0.4-10.5-0.6-10.1-1.6c0.3-0.6,3.4-9.7,6.9-20.1c3.5-10.5,6.8-20,7.2-21.2l0.8-2.1h16.4C102.6,91.2,106,91.4,105.5,92z"/><path fill="#01a99e" d="M11.1,221.8c-0.9,1.1-1.1,2.8-1.1,11.2c0,5.7,0.3,10.6,0.7,11.3c0.7,1.2,2.2,1.2,70.6,1.2c68.5,0,70,0,70.6-1.2c0.3-0.7,0.7-5.7,0.7-11.4c0-8.9-0.1-10.3-1.2-11.2c-1.1-1.1-7-1.1-70.3-1.1C15.2,220.7,12.1,220.7,11.1,221.8z"/></g></g></g>
</svg>